<svg xmlns="http://www.w3.org/2000/svg" xmlns:xlink="http://www.w3.org/1999/xlink" width="1800" zoomAndPan="magnify" viewBox="0 0 1350 899.99999" height="1200" preserveAspectRatio="xMidYMid meet" version="1.0"><defs><g/><clipPath id="4e8186d4d2"><rect x="0" width="689" y="0" height="187"/></clipPath><clipPath id="d89393cb8d"><path d="M 636 82 L 897 82 L 897 400 L 636 400 Z M 636 82 " clip-rule="nonzero"/></clipPath><clipPath id="905c7eaafc"><path d="M 624.3125 103.675781 L 809.195312 4.085938 L 974.945312 311.78125 L 790.066406 411.375 Z M 624.3125 103.675781 " clip-rule="nonzero"/></clipPath><clipPath id="25087627fb"><path d="M 624.3125 103.675781 L 809.195312 4.085938 L 974.945312 311.78125 L 790.066406 411.375 Z M 624.3125 103.675781 " clip-rule="nonzero"/></clipPath><clipPath id="5dbdec916d"><path d="M 0 340 L 351 340 L 351 748 L 0 748 Z M 0 340 " clip-rule="nonzero"/></clipPath><clipPath id="aa0e281edd"><path d="M 0 439.984375 L 184.882812 340.390625 L 350.632812 648.085938 L 165.75 747.679688 Z M 0 439.984375 " clip-rule="nonzero"/></clipPath><clipPath id="12b9987e4e"><path d="M 78 12 L 339 12 L 339 330 L 78 330 Z M 78 12 " clip-rule="nonzero"/></clipPath><clipPath id="1fd580bceb"><path d="M 0 99.984375 L 184.882812 0.390625 L 350.632812 308.085938 L 165.75 407.679688 Z M 0 99.984375 " clip-rule="nonzero"/></clipPath><clipPath id="97d1fbeb59"><path d="M 184.59375 0.546875 L -0.289062 100.140625 L 165.460938 407.835938 L 350.34375 308.242188 Z M 184.59375 0.546875 " clip-rule="nonzero"/></clipPath><clipPath id="aad785feb1"><path d="M 184.59375 0.546875 L -0.289062 100.140625 L 165.460938 407.835938 L 350.34375 308.242188 Z M 184.59375 0.546875 " clip-rule="nonzero"/></clipPath><clipPath id="7d75059b8d"><rect x="0" width="351" y="0" height="408"/></clipPath><clipPath id="dc0ae23ca3"><path d="M 455 185 L 543 185 L 543 272 L 455 272 Z M 455 185 " clip-rule="nonzero"/></clipPath><clipPath id="c2b3ea624c"><path d="M 248.753906 305.984375 L 560.414062 138.101562 L 733.632812 459.664062 L 421.976562 627.546875 Z M 248.753906 305.984375 " clip-rule="nonzero"/></clipPath><clipPath id="c8f5ae6690"><path d="M 248.753906 305.984375 L 560.414062 138.101562 L 733.632812 459.664062 L 421.976562 627.546875 Z M 248.753906 305.984375 " clip-rule="nonzero"/></clipPath><clipPath id="0b56355b83"><path d="M 248.753906 305.984375 L 560.414062 138.101562 L 733.632812 459.664062 L 421.976562 627.546875 Z M 248.753906 305.984375 " clip-rule="nonzero"/></clipPath><clipPath id="dcdb07ae49"><path d="M 346 260 L 622 260 L 622 556 L 346 556 Z M 346 260 " clip-rule="nonzero"/></clipPath><clipPath id="f4514a9104"><path d="M 248.753906 305.984375 L 560.414062 138.101562 L 733.632812 459.664062 L 421.976562 627.546875 Z M 248.753906 305.984375 " clip-rule="nonzero"/></clipPath><clipPath id="e0a6b12dd3"><path d="M 248.753906 305.984375 L 560.414062 138.101562 L 733.632812 459.664062 L 421.976562 627.546875 Z M 248.753906 305.984375 " clip-rule="nonzero"/></clipPath><clipPath id="ccf4fa13cc"><path d="M 248.753906 305.984375 L 560.414062 138.101562 L 733.632812 459.664062 L 421.976562 627.546875 Z M 248.753906 305.984375 " clip-rule="nonzero"/></clipPath><clipPath id="0cb41bddff"><path d="M 413 453 L 484 453 L 484 600 L 413 600 Z M 413 453 " clip-rule="nonzero"/></clipPath><clipPath id="9d56b5ba77"><path d="M 248.753906 305.984375 L 560.414062 138.101562 L 733.632812 459.664062 L 421.976562 627.546875 Z M 248.753906 305.984375 " clip-rule="nonzero"/></clipPath><clipPath id="04635208ef"><path d="M 248.753906 305.984375 L 560.414062 138.101562 L 733.632812 459.664062 L 421.976562 627.546875 Z M 248.753906 305.984375 " clip-rule="nonzero"/></clipPath><clipPath id="c3491dc026"><path d="M 248.753906 305.984375 L 560.414062 138.101562 L 733.632812 459.664062 L 421.976562 627.546875 Z M 248.753906 305.984375 " clip-rule="nonzero"/></clipPath><clipPath id="5923a963f4"><path d="M 648 213 L 742 213 L 742 326 L 648 326 Z M 648 213 " clip-rule="nonzero"/></clipPath><clipPath id="8ef33f05c2"><path d="M 644.429688 220.742188 L 709.800781 185.527344 L 768.84375 295.136719 L 703.476562 330.347656 Z M 644.429688 220.742188 " clip-rule="nonzero"/></clipPath><clipPath id="4edb8350f3"><path d="M 644.429688 220.742188 L 709.800781 185.527344 L 768.84375 295.136719 L 703.476562 330.347656 Z M 644.429688 220.742188 " clip-rule="nonzero"/></clipPath><clipPath id="0caeac0822"><path d="M 205 422 L 330 422 L 330 567 L 205 567 Z M 205 422 " clip-rule="nonzero"/></clipPath><clipPath id="6b1ab2f870"><path d="M 205.183594 457.355469 L 270.550781 422.144531 L 329.59375 531.753906 L 264.226562 566.964844 Z M 205.183594 457.355469 " clip-rule="nonzero"/></clipPath><clipPath id="b46dd4601a"><path d="M 28 4 L 121 4 L 121 117 L 28 117 Z M 28 4 " clip-rule="nonzero"/></clipPath><clipPath id="1c8ceac9d9"><path d="M 0.183594 35.355469 L 65.550781 0.144531 L 124.59375 109.753906 L 59.226562 144.964844 Z M 0.183594 35.355469 " clip-rule="nonzero"/></clipPath><clipPath id="c24eaba010"><path d="M 65.808594 0.00390625 L 0.441406 35.21875 L 59.484375 144.828125 L 124.851562 109.613281 Z M 65.808594 0.00390625 " clip-rule="nonzero"/></clipPath><clipPath id="c207728109"><path d="M 65.808594 0.00390625 L 0.441406 35.21875 L 59.484375 144.828125 L 124.851562 109.613281 Z M 65.808594 0.00390625 " clip-rule="nonzero"/></clipPath><clipPath id="8c857745a9"><rect x="0" width="125" y="0" height="145"/></clipPath><clipPath id="e0d69187f7"><path d="M 390.867188 583 L 1267.617188 583 L 1267.617188 751.558594 L 390.867188 751.558594 Z M 390.867188 583 " clip-rule="nonzero"/></clipPath><clipPath id="ee2f256331"><path d="M 0.238281 28 L 86 28 L 86 120 L 0.238281 120 Z M 0.238281 28 " clip-rule="nonzero"/></clipPath><clipPath id="8eabc576ff"><rect x="0" width="690" y="0" height="148"/></clipPath></defs><g transform="matrix(1, 0, 0, 1, 596, 407)"><g clip-path="url(#4e8186d4d2)"><g fill="#000000" fill-opacity="1"><g transform="translate(4.87225, 147.324244)"><g><path d="M 57.3125 2.5625 C 51.894531 2.5625 46.226562 1.882812 40.3125 0.53125 C 34.394531 -0.820312 28.828125 -3.050781 23.609375 -6.15625 C 18.398438 -9.269531 14.066406 -13.507812 10.609375 -18.875 C 7.148438 -24.238281 5.164062 -30.929688 4.65625 -38.953125 L 32.484375 -38.953125 C 33.785156 -33.941406 35.710938 -30.054688 38.265625 -27.296875 C 40.828125 -24.535156 43.765625 -22.628906 47.078125 -21.578125 C 50.390625 -20.523438 53.75 -20 57.15625 -20 C 60.257812 -20 63.164062 -20.453125 65.875 -21.359375 C 68.582031 -22.265625 70.785156 -23.644531 72.484375 -25.5 C 74.191406 -27.351562 75.046875 -29.78125 75.046875 -32.78125 C 75.046875 -35.789062 73.894531 -38.171875 71.59375 -39.921875 C 69.289062 -41.679688 66.234375 -43.113281 62.421875 -44.21875 C 58.609375 -45.320312 54.445312 -46.375 49.9375 -47.375 C 45.125 -48.476562 40.234375 -49.734375 35.265625 -51.140625 C 30.304688 -52.546875 25.742188 -54.472656 21.578125 -56.921875 C 17.421875 -59.378906 14.0625 -62.613281 11.5 -66.625 C 8.945312 -70.632812 7.671875 -75.800781 7.671875 -82.125 C 7.671875 -90.039062 9.578125 -96.582031 13.390625 -101.75 C 17.203125 -106.914062 22.335938 -110.773438 28.796875 -113.328125 C 35.265625 -115.890625 42.410156 -117.171875 50.234375 -117.171875 C 58.253906 -117.171875 65.773438 -115.765625 72.796875 -112.953125 C 79.816406 -110.148438 85.679688 -105.914062 90.390625 -100.25 C 95.109375 -94.582031 98.066406 -87.488281 99.265625 -78.96875 L 71.4375 -78.96875 C 70.132812 -83.875 67.578125 -87.707031 63.765625 -90.46875 C 59.960938 -93.226562 55.253906 -94.609375 49.640625 -94.609375 C 45.828125 -94.609375 42.335938 -93.804688 39.171875 -92.203125 C 36.015625 -90.597656 34.4375 -87.988281 34.4375 -84.375 C 34.4375 -81.664062 35.539062 -79.457031 37.75 -77.75 C 39.957031 -76.050781 42.914062 -74.675781 46.625 -73.625 C 50.332031 -72.570312 54.34375 -71.546875 58.65625 -70.546875 C 63.46875 -69.441406 68.429688 -68.160156 73.546875 -66.703125 C 78.660156 -65.253906 83.375 -63.25 87.6875 -60.6875 C 92 -58.132812 95.484375 -54.722656 98.140625 -50.453125 C 100.796875 -46.191406 102.125 -40.753906 102.125 -34.140625 C 102.125 -26.617188 100.316406 -20.125 96.703125 -14.65625 C 93.097656 -9.195312 87.960938 -4.960938 81.296875 -1.953125 C 74.628906 1.054688 66.632812 2.5625 57.3125 2.5625 Z M 57.3125 2.5625 "/></g></g></g><g fill="#000000" fill-opacity="1"><g transform="translate(116.426553, 147.324244)"><g><path d="M 35.953125 0 L 9.03125 0 L 9.03125 -114.765625 L 35.953125 -114.765625 L 35.953125 -69.34375 L 79.5625 -69.34375 L 79.5625 -114.765625 L 106.484375 -114.765625 L 106.484375 0 L 79.5625 0 L 79.5625 -45.265625 L 35.953125 -45.265625 Z M 35.953125 0 "/></g></g></g><g fill="#000000" fill-opacity="1"><g transform="translate(236.700617, 147.324244)"><g><path d="M 35.953125 0 L 9.03125 0 L 9.03125 -114.765625 L 35.953125 -114.765625 Z M 35.953125 0 "/></g></g></g><g fill="#000000" fill-opacity="1"><g transform="translate(286.315011, 147.324244)"><g><path d="M 67.828125 0 L 38.65625 0 L -0.609375 -114.765625 L 27.96875 -114.765625 L 53.25 -30.234375 L 78.515625 -114.765625 L 107.09375 -114.765625 Z M 67.828125 0 "/></g></g></g><g fill="#000000" fill-opacity="1"><g transform="translate(397.267971, 147.324244)"><g><path d="M 83.03125 -49.1875 L 102.875 0 L 74.453125 0 L 57.75 -44.21875 L 35.953125 -44.21875 L 35.953125 0 L 9.03125 0 L 9.03125 -114.765625 L 63.171875 -114.765625 C 70.191406 -114.765625 76.429688 -113.609375 81.890625 -111.296875 C 87.359375 -108.992188 91.644531 -105.3125 94.75 -100.25 C 97.863281 -95.1875 99.421875 -88.492188 99.421875 -80.171875 C 99.421875 -72.847656 97.941406 -66.578125 94.984375 -61.359375 C 92.023438 -56.148438 88.039062 -52.09375 83.03125 -49.1875 Z M 59.40625 -90.6875 L 35.953125 -90.6875 L 35.953125 -67.53125 L 59.40625 -67.53125 C 68.332031 -67.53125 72.796875 -71.441406 72.796875 -79.265625 C 72.796875 -86.878906 68.332031 -90.6875 59.40625 -90.6875 Z M 59.40625 -90.6875 "/></g></g></g><g fill="#000000" fill-opacity="1"><g transform="translate(508.22093, 147.324244)"><g><path d="M 28.875 0 L 0.296875 0 L 39.5625 -114.765625 L 68.734375 -114.765625 L 107.984375 0 L 79.421875 0 L 73.25 -20.609375 L 35.046875 -20.609375 Z M 54.140625 -84.828125 L 42.109375 -43.921875 L 66.171875 -43.921875 Z M 54.140625 -84.828125 "/></g></g></g><g fill="#000000" fill-opacity="1"><g transform="translate(620.977998, 147.324244)"><g><path d="M 15.9375 0 L 1.203125 0 L 1.203125 -24.0625 L 15.9375 -24.0625 C 18.75 -24.0625 20.957031 -24.738281 22.5625 -26.09375 C 24.164062 -27.445312 24.96875 -29.78125 24.96875 -33.09375 L 24.96875 -114.765625 L 52.046875 -114.765625 L 52.046875 -32.78125 C 52.046875 -24.164062 50.816406 -17.472656 48.359375 -12.703125 C 45.898438 -7.941406 42.015625 -4.632812 36.703125 -2.78125 C 31.390625 -0.925781 24.46875 0 15.9375 0 Z M 15.9375 0 "/></g></g></g></g></g><g clip-path="url(#d89393cb8d)"><g clip-path="url(#905c7eaafc)"><g clip-path="url(#25087627fb)"><path fill="#3b5bdb" d="M 794.160156 397.605469 C 793.054688 397.277344 791.96875 396.898438 790.90625 396.464844 C 789.839844 396.03125 788.796875 395.546875 787.777344 395.011719 C 786.761719 394.476562 785.769531 393.890625 784.8125 393.257812 C 783.851562 392.625 782.925781 391.945312 782.03125 391.21875 C 781.136719 390.496094 780.28125 389.726562 779.464844 388.917969 C 778.648438 388.109375 777.871094 387.261719 777.136719 386.375 C 776.40625 385.488281 775.714844 384.566406 775.074219 383.613281 C 774.429688 382.660156 773.835938 381.675781 773.292969 380.664062 C 772.746094 379.648438 772.25 378.613281 771.808594 377.550781 C 771.363281 376.488281 770.976562 375.410156 770.636719 374.308594 C 770.300781 373.207031 770.019531 372.09375 769.792969 370.964844 C 769.566406 369.835938 769.398438 368.703125 769.285156 367.554688 C 769.167969 366.410156 769.113281 365.265625 769.113281 364.113281 C 769.109375 362.964844 769.167969 361.816406 769.277344 360.671875 C 769.390625 359.527344 769.558594 358.390625 769.785156 357.261719 C 770.011719 356.132812 770.289062 355.019531 770.625 353.917969 L 817.625 198.007812 L 661.574219 151.480469 C 660.472656 151.152344 659.386719 150.773438 658.320312 150.339844 C 657.253906 149.910156 656.214844 149.425781 655.195312 148.886719 C 654.179688 148.351562 653.1875 147.769531 652.226562 147.132812 C 651.269531 146.5 650.339844 145.820312 649.449219 145.097656 C 648.554688 144.371094 647.699219 143.601562 646.882812 142.792969 C 646.066406 141.984375 645.289062 141.136719 644.554688 140.25 C 643.820312 139.363281 643.132812 138.445312 642.492188 137.488281 C 641.847656 136.535156 641.253906 135.550781 640.707031 134.539062 C 640.164062 133.527344 639.667969 132.488281 639.226562 131.425781 C 638.78125 130.363281 638.390625 129.285156 638.054688 128.183594 C 637.71875 127.082031 637.4375 125.96875 637.210938 124.839844 C 636.984375 123.714844 636.816406 122.578125 636.699219 121.433594 C 636.585938 120.289062 636.53125 119.140625 636.527344 117.988281 C 636.527344 116.839844 636.582031 115.691406 636.695312 114.546875 C 636.808594 113.402344 636.976562 112.265625 637.203125 111.136719 C 637.425781 110.007812 637.707031 108.894531 638.042969 107.792969 C 638.367188 106.691406 638.746094 105.605469 639.179688 104.539062 C 639.613281 103.472656 640.097656 102.429688 640.632812 101.414062 C 641.167969 100.394531 641.753906 99.40625 642.386719 98.445312 C 643.023438 97.484375 643.703125 96.558594 644.425781 95.664062 C 645.152344 94.773438 645.917969 93.917969 646.730469 93.101562 C 647.539062 92.28125 648.386719 91.507812 649.273438 90.773438 C 650.160156 90.039062 651.078125 89.351562 652.03125 88.707031 C 652.988281 88.066406 653.96875 87.472656 654.984375 86.925781 C 655.996094 86.378906 657.035156 85.886719 658.09375 85.441406 C 659.15625 85 660.238281 84.609375 661.339844 84.273438 C 662.4375 83.9375 663.550781 83.65625 664.679688 83.429688 C 665.808594 83.203125 666.945312 83.03125 668.089844 82.917969 C 669.234375 82.804688 670.382812 82.746094 671.53125 82.746094 C 672.683594 82.746094 673.832031 82.800781 674.976562 82.914062 C 676.121094 83.027344 677.257812 83.195312 678.386719 83.421875 C 679.515625 83.644531 680.628906 83.925781 681.730469 84.257812 L 871.082031 141.03125 C 872.1875 141.355469 873.269531 141.734375 874.335938 142.167969 C 875.402344 142.601562 876.445312 143.085938 877.460938 143.621094 C 878.480469 144.15625 879.46875 144.742188 880.429688 145.375 C 881.390625 146.011719 882.316406 146.6875 883.210938 147.414062 C 884.101562 148.140625 884.957031 148.90625 885.777344 149.714844 C 886.59375 150.527344 887.367188 151.375 888.101562 152.261719 C 888.835938 153.148438 889.523438 154.066406 890.167969 155.019531 C 890.808594 155.976562 891.402344 156.957031 891.949219 157.972656 C 892.496094 158.984375 892.988281 160.023438 893.433594 161.082031 C 893.875 162.144531 894.265625 163.226562 894.601562 164.328125 C 894.9375 165.425781 895.21875 166.539062 895.445312 167.667969 C 895.671875 168.796875 895.84375 169.933594 895.957031 171.078125 C 896.070312 172.222656 896.128906 173.371094 896.128906 174.519531 C 896.128906 175.671875 896.074219 176.820312 895.960938 177.964844 C 895.847656 179.109375 895.679688 180.246094 895.457031 181.375 C 895.230469 182.503906 894.949219 183.617188 894.617188 184.71875 L 837.84375 374.070312 C 837.519531 375.175781 837.140625 376.257812 836.707031 377.324219 C 836.273438 378.390625 835.789062 379.433594 835.253906 380.449219 C 834.71875 381.46875 834.132812 382.457031 833.5 383.417969 C 832.867188 384.378906 832.1875 385.304688 831.460938 386.199219 C 830.734375 387.089844 829.96875 387.945312 829.160156 388.765625 C 828.347656 389.582031 827.5 390.355469 826.613281 391.089844 C 825.730469 391.824219 824.808594 392.511719 823.855469 393.15625 C 822.902344 393.796875 821.917969 394.390625 820.902344 394.9375 C 819.890625 395.484375 818.855469 395.976562 817.792969 396.421875 C 816.730469 396.863281 815.648438 397.253906 814.550781 397.589844 C 813.449219 397.925781 812.335938 398.207031 811.207031 398.433594 C 810.078125 398.660156 808.941406 398.832031 807.796875 398.945312 C 806.652344 399.058594 805.503906 399.117188 804.355469 399.117188 C 803.203125 399.117188 802.058594 399.0625 800.910156 398.949219 C 799.765625 398.835938 798.628906 398.667969 797.5 398.445312 C 796.375 398.21875 795.257812 397.9375 794.160156 397.605469 Z M 794.160156 397.605469 " fill-opacity="1" fill-rule="nonzero"/></g></g></g><g clip-path="url(#5dbdec916d)"><g clip-path="url(#aa0e281edd)"><g transform="matrix(1, 0, 0, 1, 0, 340)"><g clip-path="url(#7d75059b8d)"><g clip-path="url(#12b9987e4e)"><g clip-path="url(#1fd580bceb)"><g clip-path="url(#97d1fbeb59)"><g clip-path="url(#aad785feb1)"><path fill="#3b5bdb" d="M 336.59375 304.085938 C 336.929688 302.984375 337.207031 301.871094 337.433594 300.742188 C 337.660156 299.613281 337.828125 298.476562 337.941406 297.332031 C 338.050781 296.1875 338.109375 295.039062 338.109375 293.890625 C 338.105469 292.738281 338.050781 291.589844 337.933594 290.445312 C 337.820312 289.300781 337.652344 288.164062 337.425781 287.039062 C 337.199219 285.910156 336.917969 284.796875 336.582031 283.695312 C 336.242188 282.59375 335.855469 281.515625 335.410156 280.453125 C 334.96875 279.390625 334.472656 278.351562 333.929688 277.339844 C 333.382812 276.328125 332.789062 275.34375 332.144531 274.390625 C 331.503906 273.433594 330.8125 272.515625 330.082031 271.628906 C 329.347656 270.742188 328.570312 269.894531 327.753906 269.085938 C 326.9375 268.277344 326.082031 267.507812 325.1875 266.78125 C 324.296875 266.058594 323.367188 265.378906 322.40625 264.746094 C 321.449219 264.113281 320.457031 263.527344 319.441406 262.992188 C 318.421875 262.453125 317.378906 261.96875 316.316406 261.539062 C 315.25 261.105469 314.164062 260.726562 313.0625 260.398438 L 157.011719 213.871094 L 204.011719 57.960938 C 204.347656 56.859375 204.625 55.746094 204.851562 54.617188 C 205.074219 53.488281 205.246094 52.355469 205.355469 51.207031 C 205.46875 50.0625 205.527344 48.914062 205.523438 47.765625 C 205.523438 46.613281 205.464844 45.46875 205.351562 44.324219 C 205.238281 43.175781 205.066406 42.042969 204.84375 40.914062 C 204.617188 39.785156 204.335938 38.671875 203.996094 37.570312 C 203.660156 36.472656 203.269531 35.390625 202.828125 34.328125 C 202.386719 33.265625 201.890625 32.230469 201.34375 31.214844 C 200.800781 30.203125 200.207031 29.21875 199.5625 28.265625 C 198.917969 27.3125 198.230469 26.390625 197.496094 25.503906 C 196.765625 24.617188 195.988281 23.769531 195.171875 22.960938 C 194.355469 22.152344 193.5 21.382812 192.605469 20.660156 C 191.710938 19.933594 190.785156 19.253906 189.824219 18.621094 C 188.863281 17.988281 187.875 17.402344 186.859375 16.867188 C 185.839844 16.332031 184.796875 15.847656 183.730469 15.414062 C 182.664062 14.980469 181.582031 14.601562 180.476562 14.273438 C 179.378906 13.941406 178.261719 13.660156 177.132812 13.433594 C 176.007812 13.210938 174.871094 13.042969 173.726562 12.929688 C 172.578125 12.816406 171.433594 12.761719 170.28125 12.761719 C 169.132812 12.761719 167.984375 12.820312 166.839844 12.933594 C 165.695312 13.046875 164.558594 13.21875 163.429688 13.445312 C 162.300781 13.671875 161.1875 13.953125 160.085938 14.289062 C 158.988281 14.625 157.90625 15.015625 156.84375 15.457031 C 155.78125 15.902344 154.746094 16.394531 153.730469 16.941406 C 152.71875 17.488281 151.734375 18.082031 150.78125 18.722656 C 149.828125 19.367188 148.90625 20.054688 148.019531 20.789062 C 147.136719 21.523438 146.285156 22.296875 145.476562 23.113281 C 144.667969 23.933594 143.898438 24.789062 143.175781 25.679688 C 142.449219 26.574219 141.769531 27.5 141.136719 28.460938 C 140.503906 29.421875 139.917969 30.410156 139.382812 31.429688 C 138.847656 32.445312 138.363281 33.488281 137.929688 34.554688 C 137.496094 35.621094 137.117188 36.703125 136.789062 37.808594 L 80.019531 227.160156 C 79.683594 228.261719 79.40625 229.375 79.179688 230.503906 C 78.957031 231.632812 78.789062 232.769531 78.675781 233.914062 C 78.5625 235.058594 78.507812 236.207031 78.507812 237.359375 C 78.507812 238.507812 78.566406 239.65625 78.679688 240.800781 C 78.792969 241.945312 78.964844 243.082031 79.191406 244.210938 C 79.417969 245.339844 79.699219 246.453125 80.035156 247.550781 C 80.371094 248.652344 80.761719 249.734375 81.203125 250.796875 C 81.648438 251.855469 82.140625 252.894531 82.6875 253.90625 C 83.230469 254.921875 83.828125 255.902344 84.46875 256.859375 C 85.113281 257.8125 85.800781 258.734375 86.535156 259.617188 C 87.265625 260.503906 88.042969 261.351562 88.859375 262.164062 C 89.679688 262.972656 90.53125 263.738281 91.425781 264.464844 C 92.320312 265.191406 93.246094 265.867188 94.207031 266.503906 C 95.167969 267.136719 96.15625 267.722656 97.175781 268.257812 C 98.191406 268.792969 99.234375 269.277344 100.300781 269.710938 C 101.367188 270.144531 102.449219 270.523438 103.554688 270.847656 L 292.90625 327.621094 C 294.007812 327.953125 295.121094 328.234375 296.25 328.460938 C 297.378906 328.683594 298.515625 328.851562 299.660156 328.964844 C 300.804688 329.078125 301.953125 329.132812 303.105469 329.132812 C 304.253906 329.132812 305.402344 329.074219 306.546875 328.960938 C 307.691406 328.847656 308.828125 328.675781 309.957031 328.449219 C 311.082031 328.222656 312.199219 327.941406 313.296875 327.605469 C 314.398438 327.269531 315.480469 326.878906 316.539062 326.4375 C 317.601562 325.992188 318.640625 325.5 319.652344 324.953125 C 320.664062 324.40625 321.648438 323.8125 322.601562 323.171875 C 323.558594 322.527344 324.476562 321.839844 325.363281 321.105469 C 326.25 320.371094 327.097656 319.597656 327.90625 318.78125 C 328.71875 317.960938 329.484375 317.105469 330.210938 316.214844 C 330.933594 315.320312 331.613281 314.394531 332.25 313.433594 C 332.882812 312.472656 333.464844 311.484375 334.003906 310.464844 C 334.539062 309.449219 335.023438 308.40625 335.457031 307.339844 C 335.890625 306.273438 336.269531 305.1875 336.59375 304.085938 Z M 336.59375 304.085938 " fill-opacity="1" fill-rule="nonzero"/></g></g></g></g></g></g></g></g><g clip-path="url(#dc0ae23ca3)"><g clip-path="url(#c2b3ea624c)"><g clip-path="url(#c8f5ae6690)"><g clip-path="url(#0b56355b83)"><path fill="#000000" d="M 538.277344 246.695312 C 528.136719 268.398438 502.324219 277.75 480.59375 267.632812 C 458.941406 257.539062 449.585938 231.707031 459.726562 210.070312 C 469.871094 188.371094 495.644531 179.015625 517.335938 189.117188 C 539.070312 199.234375 548.394531 225.007812 538.277344 246.695312 Z M 538.277344 246.695312 " fill-opacity="1" fill-rule="evenodd"/></g></g></g></g><g clip-path="url(#dcdb07ae49)"><g clip-path="url(#f4514a9104)"><g clip-path="url(#e0a6b12dd3)"><g clip-path="url(#ccf4fa13cc)"><path fill="#000000" d="M 393.589844 293.5 L 352.054688 341.359375 C 335.324219 360.375 364.089844 385.277344 380.523438 366.011719 L 415.285156 325.933594 L 448.78125 330.84375 L 429.949219 415.507812 C 427.589844 426.023438 432.425781 439.007812 442.996094 441.125 L 513.105469 455.273438 L 496.738281 528.730469 C 490.964844 557.023438 533.035156 566.328125 539.777344 538.265625 L 561.046875 442.90625 C 563.753906 430.832031 555.992188 418.902344 543.882812 416.457031 L 495.953125 406.816406 L 510.820312 340.054688 L 557.828125 346.960938 C 564.207031 347.914062 570.597656 345.523438 574.8125 340.6875 L 616.28125 292.832031 C 633.875 273.824219 604.246094 248.09375 587.875 268.15625 L 553.105469 308.222656 L 502.035156 300.71875 L 476.773438 296.960938 L 410.566406 287.191406 C 402.734375 286.042969 398.113281 288.289062 393.589844 293.5 Z M 393.589844 293.5 " fill-opacity="1" fill-rule="nonzero"/></g></g></g></g><g clip-path="url(#0cb41bddff)"><g clip-path="url(#9d56b5ba77)"><g clip-path="url(#04635208ef)"><g clip-path="url(#c3491dc026)"><path fill="#000000" d="M 440.203125 453.773438 L 413.78125 572.78125 C 407.863281 601.179688 450.121094 610.589844 456.871094 582.386719 L 483.574219 462.515625 Z M 440.203125 453.773438 " fill-opacity="1" fill-rule="nonzero"/></g></g></g></g><g clip-path="url(#5923a963f4)"><g clip-path="url(#8ef33f05c2)"><g clip-path="url(#4edb8350f3)"><path fill="#ff66c4" d="M 704.816406 325.238281 C 704.03125 325.007812 703.273438 324.699219 702.546875 324.316406 C 701.820312 323.9375 701.140625 323.488281 700.503906 322.96875 C 699.867188 322.453125 699.289062 321.878906 698.765625 321.246094 C 698.242188 320.617188 697.785156 319.9375 697.398438 319.214844 C 697.007812 318.496094 696.695312 317.742188 696.453125 316.957031 C 696.214844 316.171875 696.054688 315.375 695.972656 314.558594 C 695.890625 313.742188 695.890625 312.925781 695.972656 312.109375 C 696.050781 311.292969 696.210938 310.492188 696.449219 309.707031 L 713.160156 254.277344 L 657.679688 237.738281 C 656.894531 237.503906 656.136719 237.199219 655.410156 236.816406 C 654.6875 236.433594 654.003906 235.984375 653.367188 235.46875 C 652.730469 234.949219 652.152344 234.375 651.628906 233.746094 C 651.105469 233.113281 650.648438 232.4375 650.261719 231.714844 C 649.871094 230.992188 649.558594 230.238281 649.316406 229.453125 C 649.078125 228.671875 648.917969 227.871094 648.835938 227.054688 C 648.753906 226.238281 648.753906 225.421875 648.835938 224.605469 C 648.914062 223.789062 649.074219 222.988281 649.3125 222.207031 C 649.546875 221.417969 649.851562 220.664062 650.234375 219.9375 C 650.617188 219.210938 651.066406 218.53125 651.582031 217.894531 C 652.101562 217.257812 652.675781 216.675781 653.304688 216.15625 C 653.9375 215.632812 654.613281 215.175781 655.335938 214.785156 C 656.058594 214.398438 656.8125 214.082031 657.59375 213.84375 C 658.378906 213.605469 659.179688 213.445312 659.996094 213.363281 C 660.8125 213.28125 661.628906 213.28125 662.445312 213.359375 C 663.261719 213.441406 664.058594 213.601562 664.84375 213.839844 L 732.164062 234.023438 C 732.949219 234.253906 733.707031 234.5625 734.433594 234.945312 C 735.15625 235.324219 735.839844 235.773438 736.476562 236.292969 C 737.113281 236.808594 737.691406 237.382812 738.214844 238.015625 C 738.738281 238.644531 739.195312 239.324219 739.582031 240.046875 C 739.972656 240.765625 740.285156 241.519531 740.527344 242.304688 C 740.765625 243.089844 740.925781 243.886719 741.007812 244.703125 C 741.089844 245.519531 741.089844 246.335938 741.007812 247.152344 C 740.929688 247.96875 740.769531 248.769531 740.53125 249.554688 L 720.347656 316.875 C 720.117188 317.660156 719.808594 318.414062 719.425781 319.140625 C 719.042969 319.867188 718.59375 320.546875 718.078125 321.183594 C 717.5625 321.820312 716.988281 322.402344 716.355469 322.925781 C 715.722656 323.445312 715.046875 323.902344 714.324219 324.292969 C 713.601562 324.679688 712.847656 324.996094 712.066406 325.234375 C 711.28125 325.472656 710.480469 325.636719 709.664062 325.714844 C 708.847656 325.796875 708.03125 325.796875 707.21875 325.71875 C 706.402344 325.636719 705.601562 325.476562 704.816406 325.238281 Z M 704.816406 325.238281 " fill-opacity="1" fill-rule="nonzero"/></g></g></g><g clip-path="url(#0caeac0822)"><g clip-path="url(#6b1ab2f870)"><g transform="matrix(1, 0, 0, 1, 205, 422)"><g clip-path="url(#8c857745a9)"><g clip-path="url(#b46dd4601a)"><g clip-path="url(#1c8ceac9d9)"><g clip-path="url(#c24eaba010)"><g clip-path="url(#c207728109)"><path fill="#ff66c4" d="M 119.847656 107.921875 C 120.089844 107.136719 120.246094 106.335938 120.328125 105.519531 C 120.40625 104.703125 120.40625 103.886719 120.328125 103.070312 C 120.246094 102.257812 120.085938 101.457031 119.84375 100.671875 C 119.605469 99.886719 119.289062 99.132812 118.902344 98.414062 C 118.511719 97.691406 118.058594 97.011719 117.535156 96.382812 C 117.011719 95.75 116.429688 95.175781 115.792969 94.660156 C 115.15625 94.140625 114.476562 93.691406 113.75 93.3125 C 113.023438 92.929688 112.269531 92.621094 111.484375 92.390625 L 56.003906 75.847656 L 72.714844 20.417969 C 72.953125 19.632812 73.113281 18.832031 73.191406 18.019531 C 73.273438 17.203125 73.273438 16.386719 73.191406 15.570312 C 73.109375 14.753906 72.949219 13.953125 72.707031 13.167969 C 72.46875 12.386719 72.15625 11.632812 71.765625 10.910156 C 71.375 10.1875 70.921875 9.511719 70.398438 8.878906 C 69.875 8.246094 69.296875 7.671875 68.660156 7.15625 C 68.023438 6.640625 67.339844 6.191406 66.613281 5.808594 C 65.890625 5.425781 65.132812 5.121094 64.347656 4.886719 C 63.5625 4.648438 62.761719 4.488281 61.945312 4.410156 C 61.128906 4.328125 60.3125 4.328125 59.496094 4.410156 C 58.679688 4.492188 57.882812 4.652344 57.097656 4.890625 C 56.3125 5.132812 55.558594 5.445312 54.839844 5.835938 C 54.117188 6.222656 53.4375 6.679688 52.808594 7.203125 C 52.175781 7.726562 51.601562 8.304688 51.085938 8.941406 C 50.566406 9.578125 50.117188 10.257812 49.738281 10.984375 C 49.355469 11.710938 49.046875 12.46875 48.816406 13.253906 L 28.632812 80.574219 C 28.394531 81.355469 28.234375 82.15625 28.152344 82.972656 C 28.074219 83.789062 28.074219 84.605469 28.15625 85.421875 C 28.238281 86.238281 28.398438 87.039062 28.636719 87.820312 C 28.875 88.605469 29.191406 89.359375 29.578125 90.082031 C 29.96875 90.804688 30.425781 91.480469 30.949219 92.113281 C 31.46875 92.742188 32.050781 93.316406 32.6875 93.835938 C 33.324219 94.351562 34.003906 94.800781 34.730469 95.183594 C 35.457031 95.566406 36.210938 95.871094 37 96.105469 L 104.316406 116.289062 C 105.101562 116.527344 105.902344 116.6875 106.71875 116.765625 C 107.535156 116.847656 108.351562 116.847656 109.167969 116.765625 C 109.984375 116.683594 110.78125 116.523438 111.566406 116.28125 C 112.351562 116.042969 113.105469 115.730469 113.828125 115.339844 C 114.546875 114.949219 115.226562 114.496094 115.855469 113.972656 C 116.488281 113.449219 117.0625 112.871094 117.578125 112.234375 C 118.097656 111.597656 118.546875 110.914062 118.929688 110.1875 C 119.308594 109.464844 119.617188 108.707031 119.847656 107.921875 Z M 119.847656 107.921875 " fill-opacity="1" fill-rule="nonzero"/></g></g></g></g></g></g></g></g><g clip-path="url(#e0d69187f7)"><path fill="#3b5bdb" d="M 488.007812 583.113281 L 390.871094 751.367188 L 1170.082031 751.367188 L 1267.21875 583.113281 Z M 488.007812 583.113281 " fill-opacity="1" fill-rule="nonzero"/></g><g transform="matrix(1, 0, 0, 1, 486, 593)"><g clip-path="url(#8eabc576ff)"><g clip-path="url(#ee2f256331)"><g fill="#ffffff" fill-opacity="1"><g transform="translate(0.812032, 119.108777)"><g><path d="M 53.8125 0 L 30.671875 0 L -0.484375 -91.046875 L 22.1875 -91.046875 L 42.234375 -23.984375 L 62.296875 -91.046875 L 84.96875 -91.046875 Z M 53.8125 0 "/></g></g></g></g><g fill="#ffffff" fill-opacity="1"><g transform="translate(88.870404, 119.108777)"><g><path d="M 69.328125 0 L 7.15625 0 L 7.15625 -91.046875 L 69.328125 -91.046875 L 69.328125 -71.953125 L 28.515625 -71.953125 L 28.515625 -55.015625 L 65.390625 -55.015625 L 65.390625 -36.03125 L 28.515625 -36.03125 L 28.515625 -19.09375 L 69.328125 -19.09375 Z M 69.328125 0 "/></g></g></g><g fill="#ffffff" fill-opacity="1"><g transform="translate(166.905889, 119.108777)"><g><path d="M 28.515625 0 L 7.15625 0 L 7.15625 -91.046875 L 28.875 -91.046875 L 63.84375 -35.796875 L 63.84375 -91.046875 L 85.203125 -91.046875 L 85.203125 0 L 63.484375 0 L 28.515625 -55.609375 Z M 28.515625 0 "/></g></g></g><g fill="#ffffff" fill-opacity="1"><g transform="translate(262.839379, 119.108777)"><g><path d="M 47.96875 0 L 26.609375 0 L 26.609375 -71.953125 L 0.953125 -71.953125 L 0.953125 -91.046875 L 73.625 -91.046875 L 73.625 -71.953125 L 47.96875 -71.953125 Z M 47.96875 0 "/></g></g></g><g fill="#ffffff" fill-opacity="1"><g transform="translate(340.994193, 119.108777)"><g><path d="M 44.984375 2.03125 C 35.597656 2.03125 28.0625 0.476562 22.375 -2.625 C 16.6875 -5.726562 12.566406 -10.003906 10.015625 -15.453125 C 7.472656 -20.898438 6.203125 -27.085938 6.203125 -34.015625 L 6.203125 -91.046875 L 27.6875 -91.046875 L 27.6875 -34.015625 C 27.6875 -30.910156 28.160156 -28.082031 29.109375 -25.53125 C 30.066406 -22.988281 31.796875 -20.941406 34.296875 -19.390625 C 36.804688 -17.835938 40.367188 -17.0625 44.984375 -17.0625 C 49.597656 -17.0625 53.140625 -17.835938 55.609375 -19.390625 C 58.078125 -20.941406 59.785156 -22.988281 60.734375 -25.53125 C 61.691406 -28.082031 62.171875 -30.910156 62.171875 -34.015625 L 62.171875 -91.046875 L 83.65625 -91.046875 L 83.65625 -34.015625 C 83.65625 -27.085938 82.378906 -20.898438 79.828125 -15.453125 C 77.285156 -10.003906 73.1875 -5.726562 67.53125 -2.625 C 61.882812 0.476562 54.367188 2.03125 44.984375 2.03125 Z M 44.984375 2.03125 "/></g></g></g><g fill="#ffffff" fill-opacity="1"><g transform="translate(434.5413, 119.108777)"><g><path d="M 65.875 -39.015625 L 81.625 0 L 59.0625 0 L 45.828125 -35.078125 L 28.515625 -35.078125 L 28.515625 0 L 7.15625 0 L 7.15625 -91.046875 L 50.125 -91.046875 C 55.6875 -91.046875 60.632812 -90.128906 64.96875 -88.296875 C 69.3125 -86.472656 72.710938 -83.550781 75.171875 -79.53125 C 77.640625 -75.507812 78.875 -70.203125 78.875 -63.609375 C 78.875 -57.796875 77.695312 -52.820312 75.34375 -48.6875 C 73 -44.550781 69.84375 -41.328125 65.875 -39.015625 Z M 47.140625 -71.953125 L 28.515625 -71.953125 L 28.515625 -53.578125 L 47.140625 -53.578125 C 54.210938 -53.578125 57.75 -56.679688 57.75 -62.890625 C 57.75 -68.929688 54.210938 -71.953125 47.140625 -71.953125 Z M 47.140625 -71.953125 "/></g></g></g><g fill="#ffffff" fill-opacity="1"><g transform="translate(522.599651, 119.108777)"><g><path d="M 69.328125 0 L 7.15625 0 L 7.15625 -91.046875 L 69.328125 -91.046875 L 69.328125 -71.953125 L 28.515625 -71.953125 L 28.515625 -55.015625 L 65.390625 -55.015625 L 65.390625 -36.03125 L 28.515625 -36.03125 L 28.515625 -19.09375 L 69.328125 -19.09375 Z M 69.328125 0 "/></g></g></g><g fill="#ffffff" fill-opacity="1"><g transform="translate(600.635175, 119.108777)"><g><path d="M 45.46875 2.03125 C 41.164062 2.03125 36.664062 1.492188 31.96875 0.421875 C 27.28125 -0.648438 22.867188 -2.421875 18.734375 -4.890625 C 14.597656 -7.359375 11.15625 -10.71875 8.40625 -14.96875 C 5.664062 -19.226562 4.097656 -24.539062 3.703125 -30.90625 L 25.78125 -30.90625 C 26.8125 -26.925781 28.335938 -23.84375 30.359375 -21.65625 C 32.390625 -19.46875 34.71875 -17.957031 37.34375 -17.125 C 39.96875 -16.289062 42.632812 -15.875 45.34375 -15.875 C 47.8125 -15.875 50.117188 -16.226562 52.265625 -16.9375 C 54.410156 -17.65625 56.160156 -18.75 57.515625 -20.21875 C 58.867188 -21.695312 59.546875 -23.628906 59.546875 -26.015625 C 59.546875 -28.398438 58.628906 -30.285156 56.796875 -31.671875 C 54.972656 -33.066406 52.546875 -34.203125 49.515625 -35.078125 C 46.492188 -35.953125 43.191406 -36.789062 39.609375 -37.59375 C 35.796875 -38.46875 31.921875 -39.457031 27.984375 -40.5625 C 24.046875 -41.675781 20.425781 -43.207031 17.125 -45.15625 C 13.820312 -47.113281 11.15625 -49.679688 9.125 -52.859375 C 7.09375 -56.046875 6.078125 -60.144531 6.078125 -65.15625 C 6.078125 -71.4375 7.585938 -76.625 10.609375 -80.71875 C 13.640625 -84.820312 17.71875 -87.882812 22.84375 -89.90625 C 27.976562 -91.9375 33.648438 -92.953125 39.859375 -92.953125 C 46.222656 -92.953125 52.1875 -91.835938 57.75 -89.609375 C 63.320312 -87.390625 67.976562 -84.03125 71.71875 -79.53125 C 75.457031 -75.039062 77.800781 -69.410156 78.75 -62.640625 L 56.6875 -62.640625 C 55.644531 -66.546875 53.613281 -69.59375 50.59375 -71.78125 C 47.570312 -73.96875 43.832031 -75.0625 39.375 -75.0625 C 36.351562 -75.0625 33.585938 -74.421875 31.078125 -73.140625 C 28.578125 -71.867188 27.328125 -69.800781 27.328125 -66.9375 C 27.328125 -64.789062 28.203125 -63.039062 29.953125 -61.6875 C 31.703125 -60.332031 34.046875 -59.238281 36.984375 -58.40625 C 39.929688 -57.570312 43.113281 -56.757812 46.53125 -55.96875 C 50.351562 -55.09375 54.289062 -54.078125 58.34375 -52.921875 C 62.40625 -51.765625 66.144531 -50.171875 69.5625 -48.140625 C 72.988281 -46.117188 75.753906 -43.414062 77.859375 -40.03125 C 79.972656 -36.65625 81.03125 -32.34375 81.03125 -27.09375 C 81.03125 -21.125 79.597656 -15.96875 76.734375 -11.625 C 73.867188 -7.289062 69.789062 -3.929688 64.5 -1.546875 C 59.207031 0.835938 52.863281 2.03125 45.46875 2.03125 Z M 45.46875 2.03125 "/></g></g></g></g></g></svg>